<svg width="174" height="54" viewBox="0 0 174 54" fill="none" xmlns="http://www.w3.org/2000/svg">
<path d="M0.553223 41.1934C0.553223 39.3949 0.944661 37.755 1.72754 36.2739C2.51042 34.7928 3.68473 33.5233 5.25049 32.4653C6.81624 31.3862 8.76286 30.561 11.0903 29.9897C13.439 29.3973 16.1685 29.1011 19.2788 29.1011C21.5851 29.1011 24.0078 29.2703 26.5469 29.6089C29.1071 29.9474 31.7414 30.4658 34.4497 31.1641C34.3439 29.9792 33.9842 28.8895 33.3706 27.895C32.757 26.8794 31.9001 26.0119 30.7998 25.2925C29.7207 24.5519 28.4089 23.9806 26.8643 23.5786C25.3408 23.1766 23.6058 22.9756 21.6592 22.9756C20.6012 22.9756 19.4375 23.0391 18.168 23.166C16.8984 23.293 15.5866 23.4834 14.2324 23.7373C12.8783 23.9912 11.5347 24.3086 10.2017 24.6895C8.88981 25.0703 7.6626 25.5252 6.52002 26.0542L3.66357 18.3418C5.08122 17.834 6.59408 17.3685 8.20215 16.9453C9.83138 16.5221 11.4924 16.1624 13.1851 15.8662C14.8778 15.5488 16.5705 15.3055 18.2632 15.1362C19.9559 14.967 21.5957 14.8823 23.1826 14.8823C30.1862 14.8823 35.3913 16.6702 38.7979 20.2461C42.2044 23.8219 43.9077 29.3021 43.9077 36.6865V53H34.5132V49.4771C33.5399 50.0483 32.4714 50.5879 31.3076 51.0957C30.165 51.6035 28.9167 52.0479 27.5625 52.4287C26.2083 52.8096 24.7484 53.1058 23.1826 53.3174C21.638 53.5501 19.9982 53.6665 18.2632 53.6665C15.3433 53.6665 12.7725 53.3491 10.5508 52.7144C8.35026 52.0796 6.50944 51.2015 5.02832 50.0801C3.5472 48.9587 2.42578 47.6468 1.66406 46.1445C0.923503 44.6211 0.553223 42.9707 0.553223 41.1934ZM10.4556 40.876C10.4556 41.4896 10.6143 42.082 10.9316 42.6533C11.249 43.2035 11.7568 43.7007 12.4551 44.145C13.1533 44.5682 14.042 44.9173 15.1211 45.1924C16.2214 45.4463 17.5438 45.5732 19.0884 45.5732C20.7388 45.5732 22.3363 45.4251 23.8809 45.1289C25.4255 44.8327 26.8643 44.4412 28.1973 43.9546C29.5303 43.4679 30.7363 42.9072 31.8154 42.2725C32.8945 41.6377 33.7938 40.9818 34.5132 40.3047V38.6543C33.0744 38.2523 31.6462 37.9137 30.2285 37.6387C28.832 37.3636 27.4884 37.152 26.1978 37.0039C24.9282 36.8346 23.7222 36.7183 22.5796 36.6548C21.4582 36.5913 20.4743 36.5596 19.6279 36.5596C17.8717 36.5596 16.4118 36.6759 15.248 36.9087C14.0843 37.1414 13.1427 37.4588 12.4233 37.8608C11.7039 38.2417 11.1961 38.6966 10.8999 39.2256C10.6037 39.7546 10.4556 40.3047 10.4556 40.876ZM61.3003 10.439C60.3693 10.439 59.5229 10.312 58.7612 10.0581C58.0207 9.78304 57.3859 9.42334 56.8569 8.979C56.328 8.51351 55.9154 7.98454 55.6191 7.39209C55.3441 6.77848 55.2065 6.13314 55.2065 5.45605C55.2065 4.75781 55.3441 4.11247 55.6191 3.52002C55.9154 2.90641 56.328 2.37744 56.8569 1.93311C57.3859 1.48877 58.0207 1.13965 58.7612 0.885742C59.5229 0.610677 60.3693 0.473145 61.3003 0.473145C62.2524 0.473145 63.0988 0.610677 63.8394 0.885742C64.6011 1.13965 65.2464 1.48877 65.7754 1.93311C66.3044 2.37744 66.7064 2.90641 66.9814 3.52002C67.2777 4.11247 67.4258 4.75781 67.4258 5.45605C67.4258 6.13314 67.2777 6.77848 66.9814 7.39209C66.7064 7.98454 66.3044 8.51351 65.7754 8.979C65.2464 9.42334 64.6011 9.78304 63.8394 10.0581C63.0988 10.312 62.2524 10.439 61.3003 10.439ZM56.603 15.5488H65.9976V53H56.603V15.5488ZM75.1699 34.4331C75.1699 31.4497 75.7306 28.7625 76.8521 26.3716C77.9735 23.9595 79.5181 21.9071 81.4858 20.2144C83.4748 18.5005 85.8234 17.1886 88.5317 16.2788C91.2612 15.3478 94.2129 14.8823 97.3867 14.8823C98.7409 14.8823 100.074 14.967 101.386 15.1362C102.719 15.3055 103.988 15.5382 105.194 15.8345C106.422 16.1307 107.564 16.4904 108.622 16.9136C109.701 17.3156 110.653 17.7599 111.479 18.2466V0.346191H120.873V53H111.479V49.4771C110.653 50.0483 109.68 50.5879 108.559 51.0957C107.437 51.6035 106.231 52.0479 104.94 52.4287C103.65 52.8096 102.306 53.1058 100.91 53.3174C99.5343 53.5501 98.1696 53.6665 96.8154 53.6665C93.6416 53.6665 90.7217 53.201 88.0557 52.27C85.4108 51.339 83.1362 50.0272 81.2319 48.3345C79.3276 46.6418 77.8359 44.6211 76.7568 42.2725C75.6989 39.9027 75.1699 37.2896 75.1699 34.4331ZM85.0405 34.4331C85.0405 35.9354 85.3368 37.353 85.9292 38.686C86.5428 40.019 87.4103 41.1934 88.5317 42.209C89.6743 43.2035 91.0391 43.9969 92.626 44.5894C94.234 45.1606 96.0326 45.4463 98.0215 45.4463C99.291 45.4463 100.561 45.3299 101.83 45.0972C103.1 44.8433 104.316 44.4941 105.48 44.0498C106.665 43.6055 107.765 43.0659 108.781 42.4312C109.818 41.7964 110.717 41.0876 111.479 40.3047V27.3237C110.526 26.562 109.521 25.9167 108.463 25.3877C107.405 24.8587 106.326 24.425 105.226 24.0864C104.126 23.7479 103.015 23.5046 101.894 23.3564C100.772 23.1872 99.6825 23.1025 98.6245 23.1025C96.4663 23.1025 94.5409 23.3988 92.8481 23.9912C91.1766 24.5625 89.759 25.356 88.5952 26.3716C87.4526 27.3872 86.5745 28.5827 85.9609 29.958C85.3473 31.3333 85.0405 32.825 85.0405 34.4331ZM130.617 41.1934C130.617 39.3949 131.008 37.755 131.791 36.2739C132.574 34.7928 133.748 33.5233 135.314 32.4653C136.88 31.3862 138.826 30.561 141.154 29.9897C143.502 29.3973 146.232 29.1011 149.342 29.1011C151.649 29.1011 154.071 29.2703 156.61 29.6089C159.171 29.9474 161.805 30.4658 164.513 31.1641C164.407 29.9792 164.048 28.8895 163.434 27.895C162.82 26.8794 161.964 26.0119 160.863 25.2925C159.784 24.5519 158.472 23.9806 156.928 23.5786C155.404 23.1766 153.669 22.9756 151.723 22.9756C150.665 22.9756 149.501 23.0391 148.231 23.166C146.962 23.293 145.65 23.4834 144.296 23.7373C142.942 23.9912 141.598 24.3086 140.265 24.6895C138.953 25.0703 137.726 25.5252 136.583 26.0542L133.727 18.3418C135.145 17.834 136.658 17.3685 138.266 16.9453C139.895 16.5221 141.556 16.1624 143.249 15.8662C144.941 15.5488 146.634 15.3055 148.327 15.1362C150.019 14.967 151.659 14.8823 153.246 14.8823C160.25 14.8823 165.455 16.6702 168.861 20.2461C172.268 23.8219 173.971 29.3021 173.971 36.6865V53H164.577V49.4771C163.603 50.0483 162.535 50.5879 161.371 51.0957C160.229 51.6035 158.98 52.0479 157.626 52.4287C156.272 52.8096 154.812 53.1058 153.246 53.3174C151.701 53.5501 150.062 53.6665 148.327 53.6665C145.407 53.6665 142.836 53.3491 140.614 52.7144C138.414 52.0796 136.573 51.2015 135.092 50.0801C133.611 48.9587 132.489 47.6468 131.728 46.1445C130.987 44.6211 130.617 42.9707 130.617 41.1934ZM140.519 40.876C140.519 41.4896 140.678 42.082 140.995 42.6533C141.312 43.2035 141.82 43.7007 142.519 44.145C143.217 44.5682 144.105 44.9173 145.185 45.1924C146.285 45.4463 147.607 45.5732 149.152 45.5732C150.802 45.5732 152.4 45.4251 153.944 45.1289C155.489 44.8327 156.928 44.4412 158.261 43.9546C159.594 43.4679 160.8 42.9072 161.879 42.2725C162.958 41.6377 163.857 40.9818 164.577 40.3047V38.6543C163.138 38.2523 161.71 37.9137 160.292 37.6387C158.896 37.3636 157.552 37.152 156.261 37.0039C154.992 36.8346 153.786 36.7183 152.643 36.6548C151.522 36.5913 150.538 36.5596 149.691 36.5596C147.935 36.5596 146.475 36.6759 145.312 36.9087C144.148 37.1414 143.206 37.4588 142.487 37.8608C141.767 38.2417 141.26 38.6966 140.963 39.2256C140.667 39.7546 140.519 40.3047 140.519 40.876Z" fill="#FF6330"/>
</svg>
