<svg width="112" height="112" viewBox="0 0 112 112" fill="none" xmlns="http://www.w3.org/2000/svg">
<circle cx="56" cy="56" r="56" fill="#42B654"/>
<path d="M60.9016 12.4829L82 35.825L81.3202 36.4257L77.0313 32.3433C77.0313 32.3433 72.866 28.31 68.2187 33.1892C63.5713 38.0808 25.9601 81.9698 24.1803 84.1397C22.4004 86.3097 18.9026 87.6705 18.6183 81.835C18.3464 75.9994 18.0127 65.1375 18.0003 61.3248C17.9756 54.766 19.4959 52.6573 23.6983 45.7675C27.1838 40.0545 44.7101 17.1783 49.9878 12.8262C54.907 8.75604 58.2319 9.47935 60.9016 12.4829Z" fill="#E13027"/>
<path d="M89.2081 86.4746C86.5146 83.2806 58 49.2483 58 49.2483L69.7168 35.4942C69.7168 35.4942 74.3203 30.5547 79.2176 34.5781C84.4455 38.8616 90.9344 48.4931 92.6485 52.888C94.3625 57.2828 93.9585 59.2636 93.9585 61.4177C93.9585 63.5718 93.885 82.1293 93.836 83.9491C93.7871 85.7814 92.4893 90.3743 89.2081 86.4746Z" fill="#F8D824"/>
</svg>
