<svg width="158" height="63" viewBox="0 0 158 63" fill="none" xmlns="http://www.w3.org/2000/svg">
<path fill-rule="evenodd" clip-rule="evenodd" d="M25.9909 3.56659L1.92323 50.1294C1.92323 50.1294 -2.95012 40.2225 2.81832 27.1451C8.58657 14.068 18.6314 6.83583 25.9909 3.56659ZM40.2127 37.1512H21.615L34.5438 10.9967L40.2127 37.1512ZM55.23 44.7795L44.7875 0C44.7875 0 58.8103 1.08981 63.0869 14.8604C67.3634 28.6313 55.23 44.7795 55.23 44.7795ZM10.7744 60.4326L16.7416 47.8508H40.6105L42.2018 57.0642C42.2018 57.0642 24.6979 67.7638 10.7744 60.4326Z" fill="#C00321"/>
<path d="M74 24.6899V10.1163H79.9784V12.9456H76.5809V15.6008H79.7305V18.527H76.5809V24.6899H74ZM84.7341 19.4186C84.1414 19.6414 83.7085 19.9128 83.4365 20.2422C83.1643 20.5684 83.0283 20.9786 83.0283 21.4729C83.0283 21.8185 83.0963 22.0962 83.2301 22.303C83.3661 22.513 83.5483 22.6162 83.7743 22.6162C84.1121 22.6162 84.3553 22.4644 84.5058 22.1609C84.6588 21.8605 84.7341 21.3533 84.7341 20.6396V19.4186ZM85.0259 24.6899L84.8899 23.6853C84.6007 24.0891 84.2846 24.3928 83.942 24.5962C83.5968 24.7997 83.225 24.903 82.8217 24.903C82.1777 24.903 81.6674 24.6254 81.2907 24.0697C80.914 23.5174 80.7243 22.7648 80.7243 21.8216C80.7243 20.9948 80.8848 20.3133 81.2032 19.7771C81.5239 19.2442 82.0487 18.779 82.7804 18.3882C82.9554 18.3009 83.1912 18.1846 83.49 18.0394C84.3479 17.6195 84.778 17.1511 84.778 16.6246C84.778 16.3017 84.7148 16.0595 84.5909 15.8915C84.4694 15.7235 84.2895 15.6395 84.0586 15.6395C83.7792 15.6395 83.5702 15.7525 83.434 15.9755C83.3004 16.2016 83.2323 16.547 83.2323 17.0154V17.093H80.9286C80.9286 15.8559 81.1862 14.9353 81.7038 14.3346C82.2213 13.7305 83.0064 13.4301 84.0586 13.4301C84.5324 13.4301 84.9578 13.4883 85.3298 13.6045C85.7016 13.721 86.0126 13.8921 86.2654 14.1118C86.5885 14.4024 86.8147 14.7512 86.9432 15.1614C87.0745 15.5717 87.1403 16.3209 87.1403 17.4064V21.6247C87.1403 22.4805 87.162 23.1363 87.2082 23.5885C87.252 24.0374 87.3274 24.4057 87.4317 24.6899H85.0259ZM88.6128 24.6899V13.7402H90.7247V15.2713C90.9775 14.7253 91.2544 14.3087 91.5557 14.0278C91.8571 13.7435 92.1974 13.5789 92.5788 13.5271V16.9962C92.4502 16.9573 92.3285 16.9283 92.2121 16.9089C92.0952 16.8894 91.9884 16.8799 91.8935 16.8799C91.5217 16.8799 91.2642 17.0543 91.1207 17.3998C90.9749 17.7488 90.9022 18.4269 90.9022 19.4379V24.6899H88.6128ZM93.704 24.6899V13.7402H95.7405V15.0388C95.9886 14.5154 96.2632 14.1343 96.5692 13.8921C96.8731 13.6498 97.2302 13.5271 97.6435 13.5271C98.0202 13.5271 98.3433 13.6562 98.618 13.9146C98.89 14.173 99.1016 14.5478 99.2474 15.0388C99.4953 14.522 99.7724 14.1407 100.084 13.8954C100.394 13.6498 100.752 13.5271 101.155 13.5271C101.768 13.5271 102.215 13.8081 102.497 14.3701C102.779 14.9322 102.919 15.8269 102.919 17.0574V24.6899H100.718V17.7552C100.718 16.9734 100.676 16.4825 100.594 16.2758C100.511 16.0723 100.368 15.9691 100.164 15.9691C99.9182 15.9691 99.726 16.1368 99.5853 16.4697C99.4468 16.8054 99.3761 17.2643 99.3761 17.852V24.6899H97.2181V17.7552C97.2181 16.9734 97.1768 16.4825 97.0968 16.2758C97.0163 16.0723 96.8706 15.9691 96.6618 15.9691C96.4185 15.9691 96.2266 16.1368 96.0882 16.4697C95.9471 16.8054 95.8767 17.2643 95.8767 17.852V24.6899H93.704ZM108.067 19.4186C107.474 19.6414 107.041 19.9128 106.769 20.2422C106.497 20.5684 106.361 20.9786 106.361 21.4729C106.361 21.8185 106.429 22.0962 106.562 22.303C106.698 22.513 106.881 22.6162 107.107 22.6162C107.444 22.6162 107.687 22.4644 107.838 22.1609C107.991 21.8605 108.067 21.3533 108.067 20.6396V19.4186ZM108.358 24.6899L108.222 23.6853C107.933 24.0891 107.617 24.3928 107.274 24.5962C106.929 24.7997 106.557 24.903 106.154 24.903C105.51 24.903 105 24.6254 104.623 24.0697C104.246 23.5174 104.057 22.7648 104.057 21.8216C104.057 20.9948 104.217 20.3133 104.536 19.7771C104.856 19.2442 105.381 18.779 106.113 18.3882C106.288 18.3009 106.523 18.1846 106.822 18.0394C107.68 17.6195 108.11 17.1511 108.11 16.6246C108.11 16.3017 108.047 16.0595 107.923 15.8915C107.802 15.7235 107.622 15.6395 107.391 15.6395C107.111 15.6395 106.903 15.7525 106.766 15.9755C106.633 16.2016 106.565 16.547 106.565 17.0154V17.093H104.261C104.261 15.8559 104.519 14.9353 105.036 14.3346C105.554 13.7305 106.339 13.4301 107.391 13.4301C107.865 13.4301 108.29 13.4883 108.662 13.6045C109.034 13.721 109.345 13.8921 109.598 14.1118C109.921 14.4024 110.147 14.7512 110.276 15.1614C110.407 15.5717 110.472 16.3209 110.472 17.4064V21.6247C110.472 22.4805 110.494 23.1363 110.541 23.5885C110.584 24.0374 110.66 24.4057 110.764 24.6899H108.358ZM115.518 20.3876H117.778C117.778 20.4457 117.78 20.5167 117.785 20.6104C117.79 20.7008 117.792 20.7687 117.792 20.814C117.792 22.2124 117.547 23.2559 117.058 23.947C116.57 24.6351 115.829 24.9806 114.832 24.9806C113.707 24.9806 112.915 24.5575 112.458 23.7079C111.999 22.8618 111.77 21.363 111.77 19.2184C111.77 17.0768 112.001 15.5781 112.46 14.7253C112.922 13.8759 113.712 13.4496 114.83 13.4496C115.836 13.4496 116.577 13.7919 117.051 14.4767C117.525 15.1614 117.763 16.2274 117.763 17.6776V17.8681H115.547V17.5549C115.547 16.8991 115.493 16.4308 115.386 16.1532C115.279 15.8753 115.099 15.7363 114.847 15.7363C114.555 15.7363 114.358 15.9237 114.256 16.2953C114.154 16.6666 114.103 17.642 114.103 19.2215C114.103 20.7364 114.154 21.699 114.256 22.1123C114.358 22.5258 114.55 22.7325 114.832 22.7325C115.075 22.7325 115.253 22.5873 115.364 22.2933C115.476 21.9993 115.532 21.5343 115.532 20.898C115.532 20.8462 115.53 20.7656 115.525 20.6524C115.52 20.5394 115.518 20.4488 115.518 20.3876ZM119.194 12.655V10H121.484V12.655H119.194ZM119.194 24.6899V13.7402H121.484V24.6899H119.194ZM126.735 19.4186C126.142 19.6414 125.71 19.9128 125.438 20.2422C125.166 20.5684 125.029 20.9786 125.029 21.4729C125.029 21.8185 125.097 22.0962 125.231 22.303C125.367 22.513 125.549 22.6162 125.775 22.6162C126.113 22.6162 126.356 22.4644 126.507 22.1609C126.66 21.8605 126.735 21.3533 126.735 20.6396V19.4186ZM127.027 24.6899L126.891 23.6853C126.602 24.0891 126.286 24.3928 125.943 24.5962C125.598 24.7997 125.226 24.903 124.823 24.903C124.179 24.903 123.668 24.6254 123.292 24.0697C122.915 23.5174 122.726 22.7648 122.726 21.8216C122.726 20.9948 122.886 20.3133 123.204 19.7771C123.525 19.2442 124.05 18.779 124.781 18.3882C124.956 18.3009 125.192 18.1846 125.491 18.0394C126.349 17.6195 126.779 17.1511 126.779 16.6246C126.779 16.3017 126.716 16.0595 126.592 15.8915C126.471 15.7235 126.291 15.6395 126.06 15.6395C125.78 15.6395 125.571 15.7525 125.435 15.9755C125.302 16.2016 125.233 16.547 125.233 17.0154V17.093H122.93C122.93 15.8559 123.187 14.9353 123.705 14.3346C124.223 13.7305 125.007 13.4301 126.06 13.4301C126.534 13.4301 126.959 13.4883 127.331 13.6045C127.703 13.721 128.014 13.8921 128.266 14.1118C128.59 14.4024 128.816 14.7512 128.944 15.1614C129.076 15.5717 129.141 16.3209 129.141 17.4064V21.6247C129.141 22.4805 129.163 23.1363 129.209 23.5885C129.253 24.0374 129.328 24.4057 129.433 24.6899H127.027ZM130.162 21.2209L132.218 21.2306C132.242 21.7991 132.325 22.2124 132.468 22.4741C132.612 22.7358 132.825 22.8682 133.11 22.8682C133.338 22.8682 133.525 22.7778 133.674 22.5968C133.822 22.4193 133.895 22.1868 133.895 21.9025C133.895 21.657 133.844 21.4534 133.742 21.292C133.639 21.1305 133.413 20.94 133.061 20.7203C132.986 20.6685 132.867 20.591 132.706 20.4908C131.875 19.9807 131.297 19.5026 130.969 19.0535C130.736 18.75 130.558 18.3979 130.434 17.9941C130.31 17.5905 130.249 17.1672 130.249 16.7248C130.249 15.7268 130.504 14.9322 131.015 14.3379C131.525 13.7466 132.213 13.4496 133.081 13.4496C133.982 13.4496 134.677 13.7338 135.163 14.3056C135.649 14.8772 135.892 15.6943 135.892 16.7603V16.9573L133.88 16.9476C133.87 16.3985 133.807 16.0077 133.691 15.7752C133.576 15.5427 133.387 15.4262 133.127 15.4262C132.894 15.4262 132.709 15.5102 132.57 15.6782C132.432 15.8431 132.364 16.0626 132.364 16.334C132.364 16.8152 132.709 17.2545 133.397 17.6582C133.491 17.7163 133.564 17.7583 133.618 17.7908C134.556 18.3526 135.185 18.8986 135.503 19.4283C135.822 19.9579 135.98 20.6524 135.98 21.5084C135.98 22.6131 135.725 23.4656 135.212 24.073C134.699 24.6771 133.968 24.9806 133.017 24.9806C132.116 24.9806 131.413 24.6738 130.913 24.0633C130.412 23.4528 130.162 22.5968 130.162 21.4954V21.2209ZM143.898 16.0853C143.606 16.0853 143.407 16.2856 143.3 16.6828C143.193 17.0802 143.139 17.9585 143.139 19.3216C143.139 20.7397 143.19 21.6247 143.29 21.9735C143.39 22.3256 143.572 22.5 143.839 22.5C144.145 22.5 144.354 22.29 144.471 21.8669C144.588 21.4437 144.646 20.3295 144.646 18.527C144.646 17.6 144.59 16.9606 144.479 16.6118C144.367 16.2597 144.172 16.0853 143.898 16.0853ZM146.887 10.1163V24.6899H144.775V23.4851C144.556 23.9793 144.289 24.3539 143.973 24.6123C143.657 24.8707 143.307 25 142.923 25C142.6 25 142.306 24.9224 142.043 24.7675C141.778 24.6123 141.557 24.3959 141.377 24.1117C141.173 23.7693 141.03 23.314 140.945 22.7455C140.862 22.1737 140.821 21.1013 140.821 19.5316C140.821 17.0607 140.979 15.4359 141.292 14.6575C141.606 13.8792 142.167 13.4883 142.979 13.4883C143.327 13.4883 143.63 13.5917 143.893 13.7953C144.153 13.9986 144.389 14.3151 144.597 14.7448V10.1163H146.887ZM152.126 20.8527H154.282V21.1272C154.282 22.4063 154.032 23.3655 153.528 24.0116C153.025 24.6576 152.275 24.9806 151.278 24.9806C150.775 24.9806 150.321 24.8868 149.912 24.6963C149.504 24.5091 149.186 24.2474 148.957 23.9114C148.702 23.5271 148.517 23.0167 148.408 22.3804C148.299 21.741 148.245 20.7236 148.245 19.3249C148.245 17.7777 148.301 16.6989 148.413 16.0884C148.525 15.4779 148.714 14.9709 148.987 14.5737C149.246 14.2022 149.577 13.9212 149.978 13.7338C150.379 13.5433 150.846 13.4496 151.378 13.4496C151.92 13.4496 152.386 13.553 152.78 13.7564C153.174 13.9632 153.495 14.2667 153.742 14.6705C153.951 15.0096 154.1 15.4167 154.189 15.8915C154.279 16.3629 154.326 17.1706 154.326 18.3106V19.6317H150.578C150.573 19.664 150.571 19.7029 150.571 19.7546C150.552 20.2163 150.542 20.5361 150.542 20.7203C150.542 21.489 150.605 22.0219 150.729 22.3223C150.85 22.6226 151.064 22.7714 151.363 22.7714C151.623 22.7714 151.82 22.6549 151.954 22.4257C152.088 22.1963 152.153 21.8475 152.153 21.3824C152.153 21.2887 152.146 21.1433 152.131 20.9464C152.129 20.9108 152.126 20.8785 152.126 20.8527ZM150.634 17.7326H152.182V17.6743C152.202 17.3998 152.211 17.2028 152.211 17.0897C152.211 16.5568 152.146 16.1596 152.015 15.9043C151.883 15.6492 151.682 15.5232 151.404 15.5232C151.125 15.5232 150.923 15.6459 150.802 15.8946C150.683 16.1434 150.622 16.5568 150.622 17.1286C150.622 17.2868 150.622 17.4095 150.624 17.4968C150.627 17.5839 150.632 17.6648 150.634 17.7326ZM158 24.6899H155.711V10.1163H158V24.6899Z" fill="#0E2C8E"/>
<path fill-rule="evenodd" clip-rule="evenodd" d="M61 56.3954L73.4783 31H80.965L81.9134 56.3954H75.924L75.6382 50.9825H69.7462L67.0395 56.3954H61ZM75.3731 45.9611L75.0754 40.325L72.2571 45.9611H75.3731ZM84.1097 56.3954H89.8497L91.2783 44.3848C91.5081 43.4499 91.9358 42.5252 92.7528 42.5252C93.8041 42.5252 93.5667 43.813 93.5667 43.813L91.9388 56.3954H98.0431C98.0431 56.3954 99.5351 45.2055 99.8742 42.734C100.213 40.2623 98.3143 37.9646 95.6691 37.9646C93.8016 37.9646 92.526 38.5199 91.937 38.8465L92.8704 31H87.1304L84.1097 56.3954ZM109.505 37.8451C112.477 37.8451 116.9 39.1221 116.174 45.1878C115.449 51.2534 116.002 47.6 115.725 49.6219C115.449 51.6438 114.308 57 108.088 57C101.869 57 100.728 52.7078 101.074 49.1961C101.419 45.6843 101.419 46.5002 101.627 44.7267C101.834 42.9532 103.942 37.9161 109.505 37.8451ZM109.642 51.2476L110.594 44.4803C110.703 43.7076 110.176 42.984 109.423 42.8723C108.67 42.7606 107.965 43.3015 107.856 44.0745L106.904 50.8416C106.795 51.6145 107.322 52.3381 108.075 52.4498C108.828 52.5613 109.533 52.0204 109.642 51.2476ZM150.252 37.8451C153.223 37.8451 157.646 39.1221 156.921 45.1878C156.195 51.2534 156.748 47.6 156.471 49.6219C156.195 51.6438 155.055 57 148.835 57C142.615 57 141.475 52.7078 141.82 49.1961C142.166 45.6843 142.166 46.5002 142.373 44.7267C142.58 42.9532 144.688 37.9161 150.252 37.8451ZM150.388 51.2476L151.34 44.4803C151.449 43.7076 150.922 42.984 150.169 42.8723C149.416 42.7606 148.711 43.3015 148.603 44.0745L147.65 50.8416C147.542 51.6145 148.069 52.3381 148.821 52.4498H148.822C149.575 52.5613 150.279 52.0204 150.388 51.2476ZM125.775 39.417C125.978 39.2273 127.125 38.1989 128.286 38.1989C129.565 38.1989 130.386 38.7176 130.386 38.7176L129.77 43.9041C129.77 43.9041 125.753 43.3477 125.023 46.7748L123.874 56.3954H118L120.14 38.4745H125.888L125.775 39.417ZM137.633 39.417C137.835 39.2273 138.983 38.1989 140.144 38.1989C141.423 38.1989 142.244 38.7176 142.244 38.7176L141.628 43.9041C141.628 43.9041 137.61 43.3477 136.881 46.7748L135.732 56.3954H129.858L131.998 38.4745H137.746L137.633 39.417Z" fill="#0E2C8E"/>
</svg>
