<svg width="45" height="16" viewBox="0 0 45 16" fill="none" xmlns="http://www.w3.org/2000/svg">
<path fill-rule="evenodd" clip-rule="evenodd" d="M41.6086 6.08565C41.6086 5.61752 41.9851 5.22429 42.437 5.22429C42.9077 5.22429 43.2654 5.61752 43.2654 6.08565C43.2654 6.55377 42.9077 6.947 42.437 6.947C41.9851 6.96572 41.6086 6.5725 41.6086 6.08565ZM42.437 6.75975C42.7947 6.75975 43.0583 6.46015 43.0583 6.10437C43.0583 5.74859 42.7759 5.44899 42.437 5.44899C42.0792 5.44899 41.8157 5.74859 41.8157 6.10437C41.8157 6.46015 42.0981 6.75975 42.437 6.75975ZM42.324 6.47887H42.1546V5.71114H42.4746C42.5311 5.71114 42.6064 5.71114 42.6629 5.74859C42.7194 5.78604 42.757 5.86094 42.757 5.93584C42.757 6.02947 42.7006 6.10437 42.6252 6.1231L42.757 6.46015H42.5688L42.4558 6.16054H42.324V6.47887ZM42.324 6.04819H42.4181C42.4558 6.04819 42.4935 6.0482 42.5123 6.02947C42.5311 6.01075 42.5499 5.97329 42.5499 5.93584C42.5499 5.91712 42.5311 5.87967 42.5123 5.86094C42.4935 5.84222 42.437 5.84222 42.4181 5.84222H42.324C42.3428 5.86094 42.324 6.04819 42.324 6.04819ZM29.7661 0.33705L29.5402 1.81633C29.0507 1.55418 28.693 1.46055 28.2976 1.46055C27.2621 1.46055 26.5466 2.50916 26.5466 3.98844C26.5466 5.01832 27.0361 5.63624 27.8457 5.63624C28.1846 5.63624 28.5612 5.52389 29.0319 5.28047L28.7871 6.83465C28.2788 6.98445 27.9399 7.04062 27.5633 7.04062C26.076 7.04062 25.1346 5.91712 25.1346 4.11951C25.1346 1.70398 26.4148 0 28.2599 0C28.5047 0 28.7118 0.0187239 28.8812 0.0748991L29.4649 0.2247C29.5967 0.280875 29.6343 0.280875 29.7661 0.33705ZM25.1534 1.3482C25.1158 1.32948 25.0593 1.32948 25.0216 1.32948C24.5698 1.32948 24.3062 1.5729 23.8731 2.22828L24.0049 1.38565H22.7435L21.8963 6.89082H23.2895C23.7978 3.52031 23.9108 2.93983 24.5886 2.93983H24.6827C24.8145 2.28446 24.9651 1.79761 25.2099 1.3482H25.1534ZM16.8693 6.81592C16.4928 6.947 16.1916 7.00317 15.8715 7.00317C15.1749 7.00317 14.7795 6.5725 14.7795 5.78604C14.7795 5.63624 14.7983 5.46772 14.8172 5.28047L14.9113 4.73744L14.9678 4.30676L15.5703 0.543026H16.9447L16.7752 1.3482H17.4907L17.2836 2.67768H16.6058L16.2292 5.01832C16.2104 5.11194 16.2104 5.18684 16.2104 5.24302C16.2104 5.52389 16.361 5.65497 16.6811 5.65497C16.8505 5.65497 16.9635 5.63624 17.0576 5.59879L16.8693 6.81592ZM11.3906 3.12709C11.3906 3.81991 11.7106 4.30676 12.4449 4.66254C12.9909 4.94342 13.1039 5.01832 13.1039 5.28047C13.1039 5.61752 12.8591 5.78604 12.3131 5.78604C11.8989 5.78604 11.5224 5.72987 11.0705 5.56134L10.8822 6.83465L10.9387 6.85337L11.1835 6.90955C11.2776 6.92827 11.3906 6.947 11.5412 6.96572C11.8613 6.98445 12.1248 7.0219 12.3131 7.0219C13.7628 7.0219 14.4406 6.44142 14.4406 5.18684C14.4406 4.43784 14.1582 3.98844 13.4616 3.65139C12.8779 3.37051 12.8215 3.31434 12.8215 3.05218C12.8215 2.75258 13.0474 2.60278 13.4992 2.60278C13.7817 2.60278 14.1394 2.64023 14.4971 2.69641L14.7042 1.4231C14.3088 1.3482 13.8946 1.31075 13.4804 1.31075C11.9177 1.2733 11.3906 2.09721 11.3906 3.12709ZM40.8178 6.89082H39.4999L39.5564 6.3478C39.1798 6.77847 38.7845 6.96572 38.2761 6.96572C37.2594 6.96572 36.6005 6.0482 36.6005 4.68127C36.6005 2.84621 37.636 1.29203 38.8598 1.29203C39.4058 1.29203 39.8011 1.53545 40.1965 2.04103L40.4977 0.11235H41.8721L40.8178 6.89082ZM38.7656 5.59879C39.4246 5.59879 39.8764 4.83107 39.8764 3.74501C39.8764 3.05219 39.6129 2.65896 39.1422 2.65896C38.5209 2.65896 38.069 3.42669 38.069 4.51274C38.0502 5.22429 38.2949 5.59879 38.7656 5.59879ZM21.2561 6.77847C20.7854 6.92827 20.3148 7.00317 19.8253 7.00317C18.2814 7.00317 17.4718 6.16055 17.4718 4.53147C17.4718 2.64023 18.5073 1.25458 19.9006 1.25458C21.049 1.25458 21.7645 2.04103 21.7645 3.25816C21.7645 3.65139 21.708 4.06334 21.595 4.62509H18.8274C18.8086 4.71872 18.8086 4.75617 18.8086 4.79362C18.8086 5.44899 19.2228 5.76732 20.0324 5.76732C20.5219 5.76732 20.9737 5.65497 21.4821 5.41154C21.4632 5.41154 21.2561 6.77847 21.2561 6.77847ZM20.4842 3.48286C20.503 3.37051 20.503 3.27689 20.503 3.20199C20.503 2.75258 20.2583 2.49043 19.8441 2.49043C19.411 2.49043 19.091 2.84621 18.9592 3.48286H20.4842ZM5.81766 6.89082H4.44326L5.23401 1.68526L3.44541 6.89082H2.50404L2.39108 1.72271L1.54384 6.89082H0.244751L1.35557 0.11235H3.35127L3.40776 4.30676L4.7445 0.11235H6.90965L5.81766 6.89082ZM9.39487 4.43784C9.24425 4.41911 9.18777 4.41912 9.0748 4.41912C8.28405 4.41912 7.88868 4.69999 7.88868 5.26174C7.88868 5.59879 8.09578 5.82349 8.39702 5.82349C8.96184 5.80477 9.37604 5.24302 9.39487 4.43784ZM10.4115 6.89082H9.26308L9.28191 6.31035C8.92418 6.77847 8.47233 6.96572 7.8322 6.96572C7.0791 6.96572 6.57076 6.3478 6.57076 5.46772C6.57076 4.11951 7.47447 3.35179 8.99949 3.35179C9.16894 3.35179 9.35721 3.37051 9.56432 3.38924C9.60197 3.20199 9.6208 3.12709 9.6208 3.03346C9.6208 2.67768 9.37604 2.52788 8.73591 2.52788C8.34054 2.52788 7.88868 2.58406 7.58744 2.69641L7.38034 2.75258L7.24855 2.79003L7.43682 1.55418C8.13343 1.3482 8.58529 1.25458 9.09363 1.25458C10.2798 1.25458 10.9199 1.81633 10.9199 2.86493C10.9199 3.14581 10.9011 3.33306 10.8069 3.96971L10.5245 5.93584L10.468 6.29162L10.4304 6.5725L10.4115 6.77847C10.4304 6.74102 10.4115 6.89082 10.4115 6.89082ZM32.1572 4.43784C32.0254 4.41911 31.9501 4.41912 31.8371 4.41912C31.0464 4.41912 30.651 4.69999 30.651 5.26174C30.651 5.59879 30.8581 5.82349 31.1594 5.82349C31.7242 5.80477 32.1384 5.24302 32.1572 4.43784ZM33.1551 6.89082H32.0066L32.0254 6.31035C31.6677 6.77847 31.2158 6.96572 30.5757 6.96572C29.8226 6.96572 29.3143 6.3478 29.3143 5.46772C29.3143 4.11951 30.218 3.35179 31.743 3.35179C31.8936 3.35179 32.1007 3.37051 32.3078 3.38924C32.3455 3.20199 32.3643 3.12709 32.3643 3.03346C32.3643 2.67768 32.1195 2.52788 31.4794 2.52788C31.084 2.52788 30.6322 2.58406 30.3309 2.69641L30.1238 2.75258L29.9921 2.79003L30.1803 1.55418C30.8769 1.3482 31.3288 1.25458 31.8371 1.25458C33.0233 1.25458 33.6634 1.81633 33.6634 2.86493C33.6634 3.14581 33.6446 3.33306 33.5504 3.96971L33.268 5.91712L33.2304 6.2729L33.1927 6.55377L33.1739 6.74102L33.1551 6.89082ZM37.0335 1.3482C36.9958 1.32948 36.9394 1.32948 36.9017 1.32948C36.4499 1.32948 36.1863 1.5729 35.7532 2.22828L35.885 1.38565H34.6236L33.7764 6.89082H35.1696C35.6779 3.52031 35.7909 2.93983 36.4687 2.93983H36.5628C36.657 2.37808 36.8452 1.85378 37.09 1.3482H37.0335Z" fill="#E52727"/>
<path fill-rule="evenodd" clip-rule="evenodd" d="M31.2158 12.2271C31.2158 13.4817 30.8205 14.2119 30.218 14.2119C29.7661 14.2307 29.5025 13.7251 29.5025 12.9948C29.5025 12.1147 29.8979 11.1223 30.538 11.1223C31.0464 11.1223 31.2158 11.6653 31.2158 12.2271ZM32.5902 12.2458C32.5902 10.8601 31.8936 9.7741 30.6134 9.7741C29.126 9.7741 28.147 11.0849 28.147 13.0135C28.147 14.3992 28.7306 15.5414 30.1238 15.5414C31.5359 15.5414 32.5902 14.549 32.5902 12.2458ZM28.58 8.81912L28.3729 10.2984C27.9022 10.0362 27.5821 9.94262 27.2244 9.94262C26.2642 9.94262 25.5864 10.9912 25.5864 12.4705C25.5864 13.5004 26.0383 14.1183 26.7914 14.1183C27.1115 14.1183 27.4692 14.006 27.9022 13.7625L27.6763 15.3167C27.2056 15.4665 26.8855 15.5227 26.5278 15.5227C25.1346 15.5227 24.2497 14.3992 24.2497 12.6016C24.2497 10.186 25.4547 8.48207 27.1679 8.48207C27.3939 8.48207 27.5821 8.50079 27.7516 8.55697L28.2788 8.70677C28.4294 8.74422 28.467 8.76294 28.58 8.81912ZM20.0135 9.81155C19.9759 9.79282 19.9194 9.79282 19.8817 9.79282C19.4487 9.79282 19.2228 10.0362 18.8086 10.6916L18.9404 9.849H17.7731L16.9823 15.3542H18.2814C18.7521 11.9837 18.8651 11.4032 19.4864 11.4032C19.524 11.4032 19.524 11.4032 19.5805 11.4219C19.6935 10.7665 19.8629 10.2797 20.07 9.83027L20.0135 9.81155ZM36.9205 15.3167H35.6968L35.7532 14.7737C35.3955 15.2044 35.019 15.3916 34.5483 15.3916C33.6069 15.3916 32.9856 14.4741 32.9856 13.1072C32.9856 11.2721 33.9458 9.71792 35.0943 9.71792C35.6026 9.71792 35.9792 9.96135 36.3369 10.4856L36.6193 8.55697H37.8996L36.9205 15.3167ZM35.0001 14.0247C35.6214 14.0247 36.0357 13.257 36.0357 12.1709C36.0357 11.4781 35.7909 11.1036 35.339 11.1036C34.7554 11.1036 34.3412 11.8713 34.3412 12.9574C34.3412 13.6502 34.5671 14.0247 35.0001 14.0247ZM7.86985 15.298C7.43682 15.4478 6.98497 15.5227 6.53311 15.5227C5.0834 15.5227 4.3303 14.6801 4.3303 13.051C4.3303 11.1598 5.2905 9.7741 6.58959 9.7741C7.66275 9.7741 8.34054 10.5418 8.34054 11.7777C8.34054 12.1709 8.28406 12.5829 8.17109 13.1446H5.61057C5.59174 13.2382 5.59174 13.2757 5.59174 13.3131C5.59174 13.9498 5.98711 14.2681 6.74021 14.2681C7.2109 14.2681 7.6251 14.1558 8.07696 13.9123L7.86985 15.298ZM7.13559 12.0211C7.13559 11.9088 7.15441 11.8151 7.15441 11.7402C7.15441 11.2908 6.92848 11.0287 6.53311 11.0287C6.11891 11.0287 5.83649 11.3845 5.7047 12.0211H7.13559ZM23.2707 15.298C22.8376 15.4478 22.3858 15.5227 21.9339 15.5227C20.4842 15.5227 19.7311 14.6801 19.7311 13.051C19.7311 11.1598 20.6913 9.7741 21.9904 9.7741C23.0636 9.7741 23.7414 10.5418 23.7414 11.7777C23.7414 12.1709 23.6849 12.5829 23.5719 13.1446H20.9926C20.9737 13.2382 20.9737 13.2757 20.9737 13.3131C20.9737 13.9498 21.3691 14.2681 22.1222 14.2681C22.5929 14.2681 23.0071 14.1558 23.4589 13.9123L23.2707 15.298ZM22.5552 12.0211C22.5741 11.9088 22.5741 11.8151 22.5741 11.7402C22.5741 11.2908 22.3481 11.0287 21.9528 11.0287C21.5385 11.0287 21.2561 11.3845 21.1243 12.0211H22.5552ZM41.345 15.298C40.9119 15.4478 40.4601 15.5227 40.0082 15.5227C38.5585 15.5227 37.8054 14.6801 37.8054 13.051C37.8054 11.1598 38.7656 9.7741 40.0835 9.7741C41.1567 9.7741 41.8345 10.5418 41.8345 11.7777C41.8345 12.1709 41.778 12.5829 41.665 13.1446H39.0857C39.0669 13.2382 39.0669 13.2757 39.0669 13.3131C39.0669 13.9498 39.4622 14.2681 40.2153 14.2681C40.686 14.2681 41.1002 14.1558 41.5521 13.9123L41.345 15.298ZM40.6107 12.0211C40.6107 11.9088 40.6295 11.8151 40.6295 11.7402C40.6295 11.2908 40.4036 11.0287 40.0082 11.0287C39.594 11.0287 39.3116 11.3845 39.1798 12.0211H40.6107ZM4.02906 10.0737C3.78431 9.90517 3.42659 9.75537 2.9559 9.75537C2.42874 9.75537 2.01453 9.86772 2.01453 10.4107C2.01453 11.3845 3.9161 11.0287 3.9161 13.1259C3.9161 15.0358 2.65466 15.5414 1.52502 15.5414C1.01668 15.5414 0.43303 15.3729 0 15.1856L0.320066 13.7813C0.58365 14.0247 1.09199 14.1745 1.54385 14.1745C1.95805 14.1745 2.57935 14.0621 2.57935 13.3506C2.57935 12.2458 0.677787 12.6578 0.677787 10.7103C0.677787 8.93147 1.7886 8.40717 2.88059 8.40717C3.48307 8.40717 4.06672 8.50079 4.38679 8.72549L4.02906 10.0737ZM11.6542 15.298C11.3906 15.4291 11.0329 15.504 10.5057 15.504C9.37605 15.504 8.67943 14.3805 8.67943 13.0135C8.67943 11.2159 9.69611 9.79282 11.1835 9.79282C11.5035 9.79282 12.0119 9.9239 12.4073 10.1486L12.1248 11.4594C11.8424 11.2721 11.56 11.1597 11.2588 11.1597C10.5622 11.1597 10.0727 11.7964 10.0727 12.9199C10.0727 13.5753 10.4304 14.0996 10.9952 14.0996C11.3341 14.0996 11.5789 14.0247 11.8613 13.8562L11.6542 15.298ZM16.5116 13.9123C16.4363 14.3805 16.3987 14.8673 16.3422 15.3354H15.0996L15.1937 14.4554H15.1749C14.7795 15.0546 14.3841 15.4665 13.6687 15.4665C12.8968 15.4665 12.4637 14.6426 12.4637 13.5753C12.4637 13.2008 12.4826 12.9948 12.5579 12.4331L12.9156 9.88645H14.3088L13.9323 12.4518C13.8946 12.7327 13.8381 12.9948 13.8381 13.2944C13.8381 13.6127 13.9888 13.9498 14.3653 13.9123C14.9301 13.9123 15.269 13.2195 15.3632 12.4143L15.7585 9.88645H17.0953L16.5116 13.9123ZM42.6252 15.2605H42.4181V14.3617H42.1169V14.1558H42.9265V14.3617H42.6252V15.2605ZM44.0185 15.2605H43.8114V14.343L43.6231 15.2605H43.416L43.2277 14.343V15.2605H43.0206V14.1558H43.3407L43.5101 15.0358H43.529L43.6984 14.1558H43.9996C44.0185 14.1558 44.0185 15.2605 44.0185 15.2605Z" fill="#F3AE12"/>
</svg>
