<svg width="134" height="73" viewBox="0 0 134 73" fill="none" xmlns="http://www.w3.org/2000/svg">
<g clip-path="url(#clip0_1_1230)">
<path d="M0 10.7503C0 6.25972 3.59617 2.61595 8.03688 2.61595H125.945C130.381 2.61595 133.981 6.25972 133.981 10.7503V62.2052C133.981 66.6958 130.382 70.3358 125.945 70.3358H8.03688C3.59617 70.3358 0 66.6958 0 62.2052V10.7503Z" fill="white"/>
<path d="M0.0925903 9.92944C0.0925903 5.79914 3.40361 2.44862 7.48506 2.44862H126.611C130.693 2.44862 134 5.79914 134 9.92944V10.1672H0.0925903V9.92944ZM134 62.8849V63.0706C134 67.2009 130.693 70.5514 126.611 70.5514H7.48506C3.40376 70.5514 0.0925903 67.2009 0.0925903 63.0706V62.8849H134Z" fill="#FBB110"/>
<path d="M92.7678 36.4201C92.7678 46.876 101.142 55.3522 111.475 55.3522C121.804 55.3522 130.182 46.8761 130.182 36.4203C130.182 25.9605 121.804 17.4844 111.475 17.4844C101.142 17.4844 92.7678 25.9605 92.7678 36.4201ZM3.57772 36.4201C3.57772 46.876 11.9551 55.3522 22.2883 55.3522C32.6177 55.3522 40.9952 46.8761 40.9952 36.4203C40.9952 25.9605 32.6177 17.4844 22.2883 17.4844C11.9553 17.4844 3.57772 25.9605 3.57772 36.4201ZM134 59.3006H41.7619C43.4248 58.1194 44.9729 56.5036 46.6615 54.3233L56.0577 42.1886L60.1613 47.4368L64.7278 41.2896L60.7353 36.1452L70.2981 23.7915C73.335 19.8728 67.5277 15.2669 64.4908 19.1856L56.0393 30.1056L47.4468 19.0407C44.4062 15.1332 38.61 19.7502 41.6507 23.6613L51.3615 36.149L40.8544 49.7175C37.1212 54.5388 33.3954 58.9588 25.9993 59.3006H0.0925903V13.7515H91.8456C90.2679 14.9178 88.779 16.4815 87.1642 18.569L77.7718 30.7001L73.6646 25.4554L69.1018 31.6027L73.0943 36.7433L63.528 49.0972C60.4947 53.0158 66.3018 57.6217 69.3353 53.7031L77.7904 42.7865L86.3828 53.8478C89.4235 57.759 95.2196 53.1422 92.1789 49.231L82.4682 36.7396L92.9752 23.1748C96.4048 18.7398 99.8306 14.6467 106.104 13.7515H134V59.3006ZM100.275 36.4201C100.275 30.1578 105.29 25.0839 111.475 25.0839C117.66 25.0839 122.671 30.1578 122.671 36.4201C122.671 42.6788 117.66 47.7526 111.475 47.7526C105.29 47.7526 100.275 42.6788 100.275 36.4201ZM11.0886 36.4201C11.0886 30.1578 16.1033 25.0839 22.2883 25.0839C28.4695 25.0839 33.4843 30.1578 33.4843 36.4201C33.4843 42.6788 28.4697 47.7526 22.2883 47.7526C16.1033 47.7526 11.0886 42.6788 11.0886 36.4201Z" fill="#E70020"/>
</g>
<defs>
<clipPath id="clip0_1_1230">
<rect width="134" height="73" fill="white"/>
</clipPath>
</defs>
</svg>
