<svg width="124" height="121" viewBox="0 0 124 121" fill="none" xmlns="http://www.w3.org/2000/svg">
<path d="M27.3663 21.0748H88.246C82.2516 23.3317 64.0041 35.7401 59.4465 44.0827H27.4195L27.3663 21.0748Z" fill="#F5821F"/>
<path d="M75.8857 86.9999C75.0172 95.332 74.9813 105.478 74.9813 116.136H48.5936C48.5936 105.478 49.037 95.332 49.9059 86.9999H75.8857Z" fill="#ED1B2D"/>
<path d="M35.0628 74.96V78.1892H30.8421V81.4197H35.0628V85.1211H25.4156V67.8966H35.0628V71.7331H30.8421V74.96H35.0628ZM57.4954 74.96V78.1892H53.293V81.4197H57.4954V85.1211H47.8665V67.8966H57.4954V71.7331H53.293V74.96H57.4954ZM82.2161 74.96V78.1892H77.9955V81.4197H82.2161V85.1211H72.569V67.8966H82.2161V71.7331H77.9955V74.96H82.2161ZM42.2981 67.8966V81.4197H46.5182V85.1211H36.8716V67.8966H42.2981ZM65.2814 79.5378L63.2234 67.897H58.4889L61.184 85.1211H68.1533L71.4163 67.8966H67.3912L65.2814 79.5378ZM84.5037 67.8966H89.7179V85.1193H84.5037V67.8966Z" fill="#008061"/>
<path d="M89.7174 73.01C90.0016 71.1239 92.6616 71.6299 92.6616 72.7072V85.1211H97.8926V70.5225C97.8926 67.4271 93.5479 66.1822 89.7533 68.9072L89.7174 73.0105V73.01Z" fill="#008061"/>
<path d="M78.333 65.4744C78.865 58.8827 87.8559 48.1183 96.5632 45.2919V19.8618C72.605 30.6266 57.0348 46.9072 53.6659 65.4104L78.333 65.4744Z" fill="#ED1B2D"/>
</svg>
