<svg width="153" height="38" viewBox="0 0 153 38" fill="none" xmlns="http://www.w3.org/2000/svg">
<g clip-path="url(#clip0_1_1239)">
<path d="M33.7665 4.19785C31.7445 4.19785 28.9445 5.04473 26.9041 7.79862C26.5181 8.33478 26.224 8.93795 26.0463 9.57159C25.4275 11.7467 25.8625 14.0802 27.2227 15.8897C28.2705 17.2788 29.6062 18.3268 30.7826 19.2407C31.3647 19.6854 32.584 20.8248 32.9761 21.3061C33.5643 22.0311 34.0116 22.4576 34.5446 24.0539C34.8632 25.0226 34.9123 26.2899 34.7591 27.0149C38.4476 23.341 42.4792 18.5644 42.4792 13.3734C42.4792 7.40869 38.1351 4.19785 33.7665 4.19785Z" fill="#DD1F26"/>
<path d="M26.0646 24.1879C24.5329 22.092 22.756 20.8248 21.2978 19.4844C20.6605 18.9056 19.962 18.4669 19.4474 17.9551C16.9659 15.4815 15.8079 12.4291 16.3899 8.68206C16.8495 5.7393 18.3138 3.80792 20.0662 2.38224C17.9646 0.834696 15.477 0 12.6585 0C5.6675 0 -0.177762 5.63572 0.00605156 12.5814C0.324661 25.1262 15.9733 35.8127 22.4251 38C25.8808 36.2209 27.7128 32.9065 27.7128 29.5129C27.7067 27.0332 26.6467 24.9861 26.0646 24.1879Z" fill="#BCC032"/>
<path d="M53.3978 23.5421C54.6109 24.389 57.0066 25.4674 58.7038 25.4674C60.0089 25.4674 61.1302 24.9861 61.1302 23.5969C61.1302 22.2443 59.3717 21.7569 57.5826 21.0624C55.5239 20.2764 53.459 19.0457 53.459 15.7861C53.459 11.4481 56.7003 9.15729 61.3998 9.15729C64.4878 9.15729 67.245 10.6926 68.6726 12.3194L65.5846 15.5119C64.1876 14.3361 62.6436 13.4648 61.1547 13.4648C59.9415 13.4648 59.0347 13.9461 59.0347 15.0306C59.0347 16.5051 60.3398 16.8706 62.5455 17.7723C64.6655 18.6436 66.8529 19.9109 66.8529 23.0181C66.8529 27.2342 63.3972 29.9516 58.4894 29.9516C55.0337 29.9516 52.1233 28.532 50.9714 27.6303L53.3978 23.5421ZM77.8082 22.092C77.992 21.1233 78.0471 20.252 78.0471 19.5879C78.0471 18.144 77.5937 17.2666 76.5337 17.2666C75.1122 17.2666 74.1687 18.6497 73.7153 21.1538C73.5314 22.1225 73.4395 23.1461 73.4395 23.9259C73.4395 25.248 73.8072 26.3386 74.9284 26.3386C76.4112 26.3447 77.2935 25.047 77.8082 22.092ZM77.3854 13.6537C79.536 13.6537 83.3226 14.4701 83.3226 19.4661C83.3287 20.2216 83.2797 20.9771 83.1694 21.7265C82.2319 27.6364 78.476 30.0125 74.1687 30.0125C70.4127 30.0125 68.2866 27.8435 68.2866 23.9869C68.2866 23.2618 68.3173 22.3906 68.4705 21.5437C69.5917 15.2256 73.8929 13.6537 77.3854 13.6537ZM89.2413 29.5373H84.1804L86.3922 17.029L86.5148 14.1045H90.5771L90.669 16.2431C91.7902 14.3422 93.3649 13.6476 94.6393 13.6476C95.5216 13.6476 96.4591 13.8608 97.0657 14.2508L95.6074 18.4425C94.9763 18.1013 94.2656 17.9186 93.5487 17.9064C92.2436 17.9064 91.2143 18.6862 90.9447 20.1058L89.2413 29.5373ZM95.975 29.5373L98.7016 14.1045H103.763L101.036 29.5373H95.975ZM102.427 7.53054C103.854 7.53054 104.731 8.49319 104.731 9.66907C104.731 11.2654 103.334 12.5265 101.551 12.5265C100.099 12.5265 99.2775 11.6553 99.2775 10.4489C99.2775 8.88921 100.613 7.53054 102.427 7.53054ZM114.65 17.425C114.215 17.2544 113.75 17.1692 113.284 17.1813C110.527 17.1813 109.528 21.3122 109.528 23.7858C109.528 25.2298 109.859 26.4056 111.317 26.4056C112.347 26.4056 113.076 25.7415 113.376 24.6875L114.65 17.425ZM118.045 26.2838L117.83 29.5373H113.554V28.1238L113.401 28.0933C112.341 29.3301 110.974 29.9942 109.154 29.9942C105.913 29.9942 104.455 27.612 104.455 24.3585C104.455 18.1805 107.911 13.6598 114.246 13.6598C115.521 13.6598 117.794 13.9644 120.067 14.8661L118.045 26.2838ZM120.655 29.5373L122.836 17.2118L123.02 14.1106H127.205L127.266 15.7678C128.449 14.4701 130.023 13.6598 132.058 13.6598C134.576 13.6598 136.089 14.8052 136.12 17.3946C136.12 17.8759 136.059 18.4791 135.967 19.0518L134.086 29.5373H129.025L130.599 20.5262C130.691 20.0449 130.838 19.3503 130.838 18.7776C130.838 18.1744 130.599 17.5103 129.686 17.5103C128.387 17.5103 127.628 18.4791 127.413 19.7403L125.685 29.5373H120.655ZM147.578 17.425C147.143 17.2544 146.683 17.1692 146.217 17.1813C143.46 17.1813 142.461 21.3122 142.461 23.7858C142.461 25.2298 142.792 26.4056 144.251 26.4056C145.28 26.4056 146.009 25.7415 146.309 24.6875L147.578 17.425ZM150.972 26.2838L150.757 29.5373H146.481V28.1238L146.328 28.0933C145.268 29.3301 143.901 29.9942 142.082 29.9942C138.84 29.9942 137.388 27.612 137.388 24.3585C137.388 18.1805 140.844 13.6598 147.179 13.6598C148.448 13.6598 150.721 13.9644 152.994 14.8661L150.972 26.2838Z" fill="#DD1F26"/>
</g>
<defs>
<clipPath id="clip0_1_1239">
<rect width="153" height="38" fill="white"/>
</clipPath>
</defs>
</svg>
