<svg width="35" height="16" viewBox="0 0 35 16" fill="none" xmlns="http://www.w3.org/2000/svg">
<path d="M14.1538 8.05783L12.4039 12.7838L12.2164 11.8223C11.7789 10.6444 10.8317 9.4088 9.73077 8.90399L11.3365 14.9761H13.2356L16.0577 8.04822H14.1538V8.05783Z" fill="#11559C"/>
<path d="M15.6586 14.9905L16.7788 8.04822H18.5721L17.4519 14.9905H15.6586Z" fill="#11559C"/>
<path d="M23.9519 8.22113C23.5961 8.0817 23.0384 7.92786 22.3461 7.92786C20.5721 7.92786 19.3269 8.87016 19.3173 10.2163C19.3077 11.2163 20.2067 11.7692 20.8846 12.1009C21.5865 12.4423 21.8173 12.6586 21.8173 12.9615C21.8125 13.4279 21.2596 13.6394 20.7452 13.6394C20.0288 13.6394 19.649 13.5336 19.0577 13.2788L18.8269 13.1682L18.5769 14.7211C18.9952 14.9134 19.7692 15.0817 20.5769 15.0913C22.4567 15.0913 23.6827 14.1586 23.6971 12.7211C23.7067 11.9279 23.2259 11.3317 22.1923 10.8365C21.5673 10.5144 21.1827 10.3029 21.1875 9.97593C21.1875 9.68747 21.5096 9.37978 22.2163 9.37978C22.8029 9.37016 23.2259 9.50478 23.5577 9.64901L23.7163 9.73074L23.9519 8.22113Z" fill="#11559C"/>
<path d="M28.5481 8.05768H27.1635C26.7356 8.05768 26.4135 8.17787 26.2212 8.6346L23.5625 14.9952H25.4423C25.4423 14.9952 25.75 14.1394 25.8221 13.9519C26.0288 13.9519 27.8558 13.9567 28.1154 13.9567C28.1731 14.1971 28.3317 14.9952 28.3317 14.9952H30L28.5481 8.05768ZM26.3365 12.5288C26.4856 12.1298 27.0481 10.5865 27.0481 10.5865C27.0385 10.6058 27.1971 10.1875 27.2885 9.92306L27.4087 10.5192C27.4087 10.5192 27.7548 12.1779 27.8269 12.524C27.5481 12.5288 26.6875 12.5288 26.3365 12.5288Z" fill="#11559C"/>
<path d="M10.7739 8.05295H7.88453L7.8653 8.17314C10.1105 8.75006 11.5961 10.1587 12.2114 11.827L11.5864 8.63468C11.4807 8.19718 11.1634 8.06737 10.7739 8.05295Z" fill="#F2A724"/>
<path d="M2.46154 6.37491H1.32211L0 0.432607L1.26442 0.221069L2.16827 4.87011L4.46634 0.283569H5.67788L2.46154 6.37491Z" fill="#11559C"/>
<path d="M8.40867 4.43267H5.68271C5.60579 5.2596 5.99041 5.62017 6.64425 5.62017C7.18752 5.62017 7.66829 5.41825 8.18271 5.09133L8.17791 5.91825C7.6731 6.23556 7.08656 6.43748 6.39906 6.43748C5.21156 6.43748 4.42791 5.7596 4.66348 4.23075C4.87502 2.85094 5.83175 2.0144 6.93752 2.0144C8.21156 2.0144 8.63464 2.97113 8.45194 4.17787C8.44233 4.2644 8.41348 4.37017 8.40867 4.43267ZM6.80291 2.74517C6.37983 2.74517 5.9856 3.0769 5.80291 3.77402H7.49041C7.51925 3.11537 7.31252 2.74517 6.80291 2.74517Z" fill="#11559C"/>
<path d="M10.1827 3.91318L9.80771 6.34588H8.75482L9.40867 2.10069H10.3077V2.95165C10.6635 2.46126 11.1491 2.0478 11.8173 2.00934L11.8221 3.05742C11.1491 3.10549 10.5529 3.45645 10.1827 3.91318Z" fill="#11559C"/>
<path d="M11.8029 6.34606L12.4568 2.10087H13.5096L12.8606 6.34606H11.8029ZM13.101 1.38933C12.75 1.38933 12.5048 1.14414 12.5625 0.79318C12.6202 0.432603 12.9375 0.177795 13.2885 0.177795C13.6298 0.177795 13.875 0.432603 13.8173 0.79318C13.7645 1.14414 13.4471 1.38933 13.101 1.38933Z" fill="#11559C"/>
<path d="M16.4327 0.942472C16.0721 0.942472 15.8558 1.10112 15.7981 1.48093L15.7019 2.10593H16.5096V2.96651H15.5673L15.0481 6.34632H14L14.5193 2.9617H13.9039L14.0385 2.10113H14.6539L14.7644 1.37036C14.9087 0.428048 15.5625 0.0770874 16.4327 0.0770874C16.6154 0.0770874 16.7548 0.096318 16.8606 0.110741L16.8702 0.971318C16.7644 0.961703 16.6106 0.942472 16.4327 0.942472Z" fill="#11559C"/>
<path d="M16.4423 6.34606L17.0962 2.10087H18.1491L17.5 6.34606H16.4423ZM17.7452 1.38933C17.3942 1.38933 17.1491 1.14414 17.2019 0.79318C17.2596 0.432603 17.5769 0.177795 17.9279 0.177795C18.2692 0.177795 18.5144 0.432603 18.4567 0.79318C18.4039 1.14414 18.0866 1.38933 17.7452 1.38933Z" fill="#11559C"/>
<path d="M22.2452 4.43267H19.5192C19.4471 5.2596 19.8269 5.62017 20.4807 5.62017C21.024 5.62017 21.5048 5.41825 22.0192 5.09133L22.0144 5.91825C21.5096 6.23556 20.923 6.43748 20.2355 6.43748C19.048 6.43748 18.2644 5.7596 18.5 4.23075C18.7115 2.85094 19.6682 2.0144 20.774 2.0144C22.048 2.0144 22.4711 2.97113 22.2884 4.17787C22.2788 4.2644 22.25 4.37017 22.2452 4.43267ZM20.6394 2.74517C20.2163 2.74517 19.8221 3.0769 19.6394 3.77402H21.3269C21.3557 3.11537 21.149 2.74517 20.6394 2.74517Z" fill="#11559C"/>
<path d="M25.3654 6.34615L25.3702 5.75481C25.0144 6.11538 24.5529 6.43269 23.9664 6.43269C23.0769 6.43269 22.4664 5.77404 22.6875 4.34134C22.9327 2.75961 23.9087 2.05769 24.8943 2.05769C25.2981 2.05769 25.6154 2.12981 25.8558 2.21635L26.1731 0.168269L27.2548 0L26.2789 6.34615H25.3654ZM25.7212 3.08654C25.476 2.96154 25.2837 2.90384 24.9231 2.90384C24.3702 2.90384 23.8943 3.35096 23.7548 4.28365C23.6298 5.11058 23.9183 5.49519 24.3846 5.49519C24.7693 5.49519 25.1058 5.26442 25.4423 4.91346L25.7212 3.08654Z" fill="#11559C"/>
<path d="M29.5048 6.38933C29.0048 6.38933 28.5961 6.3076 28.2211 6.1778L28.9134 1.66818L29.7307 1.54318L29.4327 3.49511C29.6731 3.28357 30.0048 3.06722 30.4086 3.06722C31.0865 3.06722 31.5432 3.57203 31.375 4.65376C31.1923 5.83645 30.4615 6.38933 29.5048 6.38933ZM30.0961 3.76914C29.8317 3.76914 29.5625 3.94703 29.3269 4.18741L29.1009 5.64414C29.2596 5.70183 29.3654 5.73068 29.5913 5.73068C30.0961 5.73068 30.4519 5.42299 30.5625 4.69222C30.6586 4.07684 30.4519 3.76914 30.0961 3.76914Z" fill="#11559C"/>
<path d="M33.2597 6.52412C32.851 7.31739 32.4472 7.56258 31.827 7.56258C31.6875 7.56258 31.6106 7.54816 31.5385 7.52893L31.5337 6.87028C31.6347 6.89912 31.7452 6.91835 31.8991 6.91835C32.1298 6.91835 32.3366 6.81258 32.4712 6.57701L32.577 6.36547L31.8991 3.1972L32.75 3.09143L33.1443 5.37989L34.2068 3.1347H35L33.2597 6.52412Z" fill="#11559C"/>
</svg>
