<svg width="160" height="38" viewBox="0 0 160 38" fill="none" xmlns="http://www.w3.org/2000/svg">
<g clip-path="url(#clip0_1_1235)">
<path d="M140.522 12.7924C141.412 12.7924 142.146 12.3294 142.245 11.7313L143.124 1.78937C143.124 0.806709 141.973 0 140.525 0C139.078 0 137.927 0.806705 137.927 1.78955L138.806 11.7313C138.903 12.3292 139.636 12.7924 140.525 12.7924H140.522ZM135.146 15.8977C135.593 15.1275 135.559 14.2619 135.088 13.8774L126.913 8.14511C126.063 7.65307 124.789 8.24533 124.065 9.4992C123.34 10.7515 123.468 12.1501 124.316 12.6423L133.368 16.8553C133.934 17.065 134.706 16.6615 135.149 15.8918L135.146 15.8977ZM145.902 15.8924C146.348 16.662 147.116 17.0657 147.682 16.8559L156.734 12.6428C157.587 12.1508 157.709 10.752 156.99 9.49973C156.263 8.2471 154.986 7.6536 154.138 8.14565L145.963 13.8779C145.495 14.2619 145.46 15.1282 145.905 15.8982L145.902 15.8924ZM140.522 25.2114C141.412 25.2114 142.146 25.6704 142.245 26.269L143.124 36.2096C143.124 37.1952 141.973 38.0002 140.525 38.0002C139.078 38.0002 137.927 37.1952 137.927 36.2096L138.806 26.269C138.903 25.6704 139.636 25.2114 140.525 25.2114H140.522ZM145.902 22.1053C146.348 21.3336 147.116 20.9334 147.682 21.1455L156.734 25.3557C157.587 25.8483 157.709 27.2483 156.99 28.5017C156.263 29.7502 154.986 30.3453 154.138 29.854L145.963 24.1271C145.495 23.74 145.46 22.8732 145.905 22.1037H145.901M135.146 22.1043C135.593 22.8732 135.559 23.74 135.088 24.1278L126.913 29.8545C126.063 30.3459 124.789 29.7508 124.065 28.5022C123.34 27.2489 123.468 25.8488 124.316 25.3563L133.368 21.1461C133.934 20.9339 134.706 21.3341 135.149 22.106H135.146" fill="#FDBB30"/>
<path d="M88.9548 24.109C88.9548 24.4141 88.9276 24.7287 88.8441 25.0051C88.4973 26.1529 87.3084 27.1235 85.821 27.1235C84.5808 27.1235 83.5958 26.4193 83.5958 24.932C83.5958 22.6557 86.1023 22.0271 88.9555 22.0429L88.9548 24.1088V24.109ZM93.4301 20.1421C93.4301 16.3887 91.8256 13.0859 86.4041 13.0859C83.6211 13.0859 81.4124 13.8673 80.2068 14.5636L81.0898 17.5812C82.1916 16.8859 83.9477 16.3103 85.6095 16.3103C88.3594 16.3026 88.8098 17.8669 88.8098 18.868V19.105C82.8153 19.0961 79.0261 21.1709 79.0261 25.3974C79.0261 27.98 80.956 30.3989 84.3109 30.3989C86.3723 30.3989 88.0989 29.5764 89.1322 28.2576H89.2343C89.2343 28.2576 89.918 31.1208 93.6925 30.0253C93.4956 28.8346 93.4308 27.5635 93.4308 26.0351L93.4303 20.1421M0.0302734 7.9743C0.0302734 7.9743 3.9475 24.0187 4.57302 26.6226C5.30269 29.6619 6.61778 30.7808 10.4076 30.0253L12.8534 20.0784C13.4736 17.6065 13.8886 15.8441 14.2883 13.3321H14.3578C14.6384 15.8707 15.0364 17.6142 15.5468 20.0866C15.5468 20.0866 16.5419 24.6026 17.0524 26.9738C17.5635 29.3442 18.9859 30.8391 22.6985 30.0253L28.5267 7.97359H23.8225L21.8319 17.5081C21.2967 20.2822 20.8115 22.4524 20.4371 24.9898H20.3706C20.0304 22.4748 19.5972 20.3931 19.0537 17.6895L16.9829 7.97359H12.0806L9.86424 17.4446C9.23695 20.3234 8.6487 22.647 8.27606 25.1H8.20827C7.82569 22.7902 7.31641 19.8686 6.76524 17.0833C6.76524 17.0833 5.44944 10.3087 4.98665 7.97359L0.0302734 7.9743ZM37.4252 24.109C37.4252 24.4141 37.398 24.7287 37.3132 25.0051C36.9672 26.1529 35.7776 27.1235 34.2902 27.1235C33.0498 27.1235 32.0662 26.4193 32.0662 24.932C32.0662 22.6557 34.572 22.0271 37.4257 22.0429L37.4252 24.1088V24.109ZM41.9 20.1421C41.9 16.3887 40.2955 13.0859 34.875 13.0859C32.0914 13.0859 29.8809 13.8673 28.676 14.5636L29.5579 17.5812C30.6595 16.8859 32.4156 16.3103 34.0779 16.3103C36.8298 16.3026 37.2802 17.8669 37.2802 18.868V19.105C31.2833 19.0961 27.4958 21.1709 27.4958 25.3974C27.4958 27.98 29.4246 30.3989 32.777 30.3989C34.8413 30.3989 36.5669 29.5764 37.6014 28.2576H37.7022C37.7022 28.2576 38.3879 31.1208 42.1615 30.0253C41.9642 28.8346 41.9 27.5635 41.9 26.0351V20.1421ZM49.3682 25.3444V7.9743H44.8875V30.0261H49.3682V25.3444ZM107.983 7.9743V24.2415C107.983 26.4853 108.406 28.0556 109.309 29.0166C110.099 29.8568 111.398 30.4007 112.956 30.4007C114.282 30.4007 115.584 30.1479 116.199 29.92L116.141 26.4211C115.684 26.5328 115.159 26.6233 114.44 26.6233C112.913 26.6233 112.402 25.6456 112.402 23.6322V17.408H116.304V13.1883H112.402V7.9743H107.983ZM96.4178 13.46V30.0261H101.04V21.5439C101.04 21.0854 101.068 20.686 101.14 20.3206C101.482 18.5429 102.841 17.408 104.794 17.408C105.329 17.408 105.712 17.4662 106.127 17.5251V13.1883C105.779 13.1189 105.543 13.0865 105.109 13.0865C103.384 13.0865 101.422 14.199 100.598 16.5854H100.473V13.46H96.4178ZM52.5055 13.46V30.0261H57.0087V20.3117C57.0087 19.8558 57.0623 19.3737 57.2202 18.9558C57.5934 17.9778 58.504 16.8323 59.9572 16.8323C61.7752 16.8323 62.6241 18.3678 62.6241 20.584V30.0248H67.1237V20.1921C67.1237 19.7572 67.1832 19.2329 67.3118 18.8494C67.6813 17.7362 68.6622 16.831 70.0133 16.831C71.8554 16.831 72.7397 18.3396 72.7397 20.9481V30.0243H77.2423V20.2668C77.2423 15.1217 74.6285 13.0849 71.6775 13.0849C70.3718 13.0849 69.3401 13.4118 68.407 13.9833C67.6236 14.4657 66.9209 15.1493 66.3078 16.0479H66.2413C65.5297 14.2626 63.8554 13.0857 61.6737 13.0857C58.8708 13.0857 57.6111 14.506 56.847 15.7104H56.7799V13.4595H52.5055" fill="#1A75CF"/>
<path d="M159.005 29.2206H159.073C159.163 29.2206 159.221 29.1833 159.221 29.128C159.221 29.065 159.167 29.0308 159.083 29.0308C159.054 29.0308 159.025 29.0367 159.005 29.0367V29.2222V29.2204L159.005 29.2206ZM158.994 29.6672H158.755V28.8877C158.809 28.877 158.936 28.858 159.098 28.858C159.274 28.858 159.353 28.8829 159.411 28.9219C159.46 28.9559 159.496 29.0141 159.496 29.0927C159.496 29.1727 159.422 29.2405 159.313 29.2701V29.28C159.402 29.3036 159.45 29.3678 159.476 29.4804C159.5 29.5929 159.515 29.6388 159.53 29.6678H159.258C159.235 29.6388 159.221 29.5698 159.205 29.501C159.19 29.4221 159.152 29.3825 159.072 29.3825H158.994L158.994 29.6672ZM159.093 28.6337C158.75 28.6337 158.49 28.9136 158.49 29.2704C158.49 29.6181 158.75 29.9017 159.103 29.9017C159.457 29.9076 159.717 29.6183 159.717 29.2648C159.717 28.9128 159.457 28.6337 159.099 28.6337H159.093ZM159.109 28.422C159.588 28.422 159.97 28.7991 159.97 29.2646C159.97 29.7355 159.588 30.1131 159.102 30.1131C158.617 30.1131 158.23 29.735 158.23 29.2648C158.23 28.7991 158.617 28.4222 159.102 28.4222H159.108" fill="#FDBB30"/>
</g>
<defs>
<clipPath id="clip0_1_1235">
<rect width="160" height="38" fill="white"/>
</clipPath>
</defs>
</svg>
